<svg xmlns="http://www.w3.org/2000/svg" viewBox="0 0 44.57 48"><defs><style>.cls-1{fill:#016e90;}</style></defs><title>Asset 31</title><g id="Layer_2" data-name="Layer 2"><g id="Layer_1-2" data-name="Layer 1"><path class="cls-1" d="M44.57,10.29V44.57A3.48,3.48,0,0,1,41.14,48H3.43A3.3,3.3,0,0,1,1,47a3.29,3.29,0,0,1-1-2.41V10.29A3.29,3.29,0,0,1,1,7.88a3.3,3.3,0,0,1,2.41-1H6.86V4.29a4.13,4.13,0,0,1,1.26-3,4.13,4.13,0,0,1,3-1.26h1.71a4.13,4.13,0,0,1,3,1.26,4.13,4.13,0,0,1,1.26,3V6.86H27.43V4.29a4.13,4.13,0,0,1,1.26-3,4.13,4.13,0,0,1,3-1.26h1.71a4.13,4.13,0,0,1,3,1.26,4.13,4.13,0,0,1,1.26,3V6.86h3.43a3.3,3.3,0,0,1,2.41,1A3.3,3.3,0,0,1,44.57,10.29ZM3.43,24.86h7.71V17.14H3.43Zm0,10.29h7.71V26.57H3.43Zm0,9.43h7.71V36.86H3.43ZM13.71,12V4.29a.87.87,0,0,0-.86-.86H11.14a.87.87,0,0,0-.86.86V12a.87.87,0,0,0,.86.86h1.71a.87.87,0,0,0,.86-.86Zm-.86,12.86h8.57V17.14H12.86Zm0,10.29h8.57V26.57H12.86Zm0,9.43h8.57V36.86H12.86ZM23.14,24.86h8.57V17.14H23.14Zm0,10.29h8.57V26.57H23.14Zm0,9.43h8.57V36.86H23.14ZM34.29,12V4.29a.87.87,0,0,0-.86-.86H31.71a.87.87,0,0,0-.86.86V12a.87.87,0,0,0,.86.86h1.71a.87.87,0,0,0,.86-.86Zm-.86,12.86h7.71V17.14H33.43Zm0,10.29h7.71V26.57H33.43Zm0,9.43h7.71V36.86H33.43Z"/></g></g></svg>