<svg xmlns="http://www.w3.org/2000/svg" viewBox="0 0 51.43 48"><defs><style>.cls-1{fill:#016e90;}</style></defs><title>Asset 2</title><g id="Layer_2" data-name="Layer 2"><g id="Layer_1-2" data-name="Layer 1"><path class="cls-1" d="M15.88,24a9.24,9.24,0,0,0-7.1,3.43H5.2a6.14,6.14,0,0,1-3.7-1.08A3.67,3.67,0,0,1,0,23.17q0-9.46,3.32-9.46a5.11,5.11,0,0,1,1.17.56A17.59,17.59,0,0,0,7.1,15.42a9.39,9.39,0,0,0,3.19.58,10.75,10.75,0,0,0,3.56-.62,13.35,13.35,0,0,0-.13,1.77A11.79,11.79,0,0,0,15.88,24ZM15.13,2a6.61,6.61,0,0,1,2,4.85,6.61,6.61,0,0,1-2,4.85,6.61,6.61,0,0,1-4.85,2,6.61,6.61,0,0,1-4.85-2,6.61,6.61,0,0,1-2-4.85A6.61,6.61,0,0,1,5.44,2a6.61,6.61,0,0,1,4.85-2A6.61,6.61,0,0,1,15.13,2ZM44.57,41.06a6.68,6.68,0,0,1-2,5.08A7.23,7.23,0,0,1,37.42,48H14a7.22,7.22,0,0,1-5.2-1.86,6.68,6.68,0,0,1-2-5.08q0-1.42.09-2.77a27.29,27.29,0,0,1,.38-2.92A22.73,22.73,0,0,1,8,32.46a13.78,13.78,0,0,1,1.15-2.61,9.42,9.42,0,0,1,1.66-2.17,7,7,0,0,1,2.29-1.43,8,8,0,0,1,3-.54,3.16,3.16,0,0,1,1.15.58l2,1.29a11.74,11.74,0,0,0,2.87,1.29,11.65,11.65,0,0,0,7.23,0,11.75,11.75,0,0,0,2.87-1.29l2-1.29a3.16,3.16,0,0,1,1.15-.58,8,8,0,0,1,3,.54,7,7,0,0,1,2.29,1.43,9.45,9.45,0,0,1,1.66,2.17,13.81,13.81,0,0,1,1.15,2.61,22.82,22.82,0,0,1,.71,2.91,27.29,27.29,0,0,1,.38,2.92Q44.57,39.64,44.57,41.06ZM33,9.87a9.91,9.91,0,0,1,3,7.27,9.91,9.91,0,0,1-3,7.27,9.91,9.91,0,0,1-7.27,3,9.91,9.91,0,0,1-7.27-3,9.91,9.91,0,0,1-3-7.27,9.91,9.91,0,0,1,3-7.27,9.91,9.91,0,0,1,7.27-3A9.91,9.91,0,0,1,33,9.87ZM46,2a6.61,6.61,0,0,1,2,4.85,6.61,6.61,0,0,1-2,4.85,6.86,6.86,0,0,1-9.7,0,6.61,6.61,0,0,1-2-4.85,6.61,6.61,0,0,1,2-4.85A6.85,6.85,0,0,1,46,2Zm5.44,21.16a3.67,3.67,0,0,1-1.5,3.17,6.14,6.14,0,0,1-3.7,1.08H42.64A9.24,9.24,0,0,0,35.54,24a11.79,11.79,0,0,0,2.17-6.86,13.43,13.43,0,0,0-.13-1.77,10.75,10.75,0,0,0,3.56.62,9.4,9.4,0,0,0,3.19-.58,17.59,17.59,0,0,0,2.61-1.14,5.12,5.12,0,0,1,1.17-.56Q51.43,13.71,51.43,23.17Z"/></g></g></svg>