<svg xmlns="http://www.w3.org/2000/svg" viewBox="0 0 48 37.72"><defs><style>.cls-1{fill:#016e90;}</style></defs><title>Asset 4</title><g id="Layer_2" data-name="Layer 2"><g id="Layer_1-2" data-name="Layer 1"><path class="cls-1" d="M35.2,6.83a10.67,10.67,0,0,1,0,13.77,17,17,0,0,1-6.87,5,24.12,24.12,0,0,1-9.47,1.83A26.86,26.86,0,0,1,14.14,27,22.51,22.51,0,0,1,6.7,30.43a22.4,22.4,0,0,1-2.3.43H4.31a.84.84,0,0,1-.55-.21.88.88,0,0,1-.31-.56.54.54,0,0,1,0-.17,1,1,0,0,1,0-.17.55.55,0,0,1,.05-.16l.07-.13.09-.15.11-.13L3.88,29,4,28.9q.13-.16.62-.67t.7-.79l.6-.78a6.81,6.81,0,0,0,.67-1q.28-.54.55-1.18A15.65,15.65,0,0,1,1.9,19.71a10.52,10.52,0,0,1-1.9-6A10.82,10.82,0,0,1,2.52,6.83a17,17,0,0,1,6.87-5A24.13,24.13,0,0,1,18.86,0a24.13,24.13,0,0,1,9.47,1.83A17,17,0,0,1,35.2,6.83ZM48,20.57a10.5,10.5,0,0,1-1.9,6,15.71,15.71,0,0,1-5.22,4.73q.27.64.55,1.18a6.72,6.72,0,0,0,.67,1l.6.78q.21.28.7.79t.62.67l.11.12.12.13.11.13.09.15.07.13a.58.58,0,0,1,.05.16,1.07,1.07,0,0,1,0,.17.55.55,0,0,1,0,.17,1,1,0,0,1-.35.59.81.81,0,0,1-.59.19,21.4,21.4,0,0,1-9.75-3.86,26.87,26.87,0,0,1-4.71.43A22.5,22.5,0,0,1,16.5,30.75q1.55.11,2.36.11a28.29,28.29,0,0,0,8.28-1.21,23.72,23.72,0,0,0,7.07-3.46,17.93,17.93,0,0,0,5.14-5.68A13.78,13.78,0,0,0,40.53,9.64,15.87,15.87,0,0,1,46,14.41,10.53,10.53,0,0,1,48,20.57Z"/></g></g></svg>