<svg xmlns="http://www.w3.org/2000/svg" viewBox="0 0 44.57 37.71"><defs><style>.cls-1{fill:#016e90;}</style></defs><title>Asset 32</title><g id="Layer_2" data-name="Layer 2"><g id="Layer_1-2" data-name="Layer 1"><path class="cls-1" d="M44.57,5.14V18.86A1.66,1.66,0,0,1,44.13,20a1.69,1.69,0,0,1-1.08.58l-28,3.27a16.34,16.34,0,0,1,.35,1.88,5.18,5.18,0,0,1-.64,1.71H39.43a1.71,1.71,0,0,1,0,3.43H12a1.74,1.74,0,0,1-1.71-1.71,2.55,2.55,0,0,1,.21-.84,10.12,10.12,0,0,1,.43-1q.21-.42.58-1.07t.42-.79l-4.74-22H1.71A1.65,1.65,0,0,1,.51,2.92,1.65,1.65,0,0,1,0,1.71,1.65,1.65,0,0,1,.51.51,1.65,1.65,0,0,1,1.71,0H8.57a1.64,1.64,0,0,1,.76.17,1.57,1.57,0,0,1,.52.42,2.62,2.62,0,0,1,.35.66,4.18,4.18,0,0,1,.21.7l.15.79q.09.51.12.7H42.86a1.74,1.74,0,0,1,1.71,1.71ZM16.13,31.88a3.43,3.43,0,0,1-2.41,5.84,3.43,3.43,0,1,1,2.41-5.84Zm24,0a3.36,3.36,0,1,1-2.41-1A3.3,3.3,0,0,1,40.13,31.88Z"/></g></g></svg>