<svg xmlns="http://www.w3.org/2000/svg" viewBox="0 0 48 34.29"><defs><style>.cls-1{fill:#016e90;}</style></defs><title>Asset 35</title><g id="Layer_2" data-name="Layer 2"><g id="Layer_1-2" data-name="Layer 1"><path class="cls-1" d="M48,2.57V31.71a1.6,1.6,0,0,1-1,1.58,1.85,1.85,0,0,1-.67.13,1.59,1.59,0,0,1-1.21-.51L34.29,22.13v4.45a7.73,7.73,0,0,1-7.71,7.71H7.71A7.43,7.43,0,0,1,2.26,32,7.43,7.43,0,0,1,0,26.57V7.71A7.43,7.43,0,0,1,2.26,2.26,7.43,7.43,0,0,1,7.71,0H26.57A7.43,7.43,0,0,1,32,2.26a7.43,7.43,0,0,1,2.26,5.45v4.42L45.08,1.37A1.59,1.59,0,0,1,46.29.86,1.86,1.86,0,0,1,47,1,1.6,1.6,0,0,1,48,2.57Z"/></g></g></svg>