<svg xmlns="http://www.w3.org/2000/svg" viewBox="0 0 43.18 34.37"><defs><style>.cls-1{fill:#016e90;}</style></defs><title>Asset 36</title><g id="Layer_2" data-name="Layer 2"><g id="Layer_1-2" data-name="Layer 1"><path class="cls-1" d="M43,17.95l-1.66,2a.91.91,0,0,1-.56.29h-.08a.82.82,0,0,1-.56-.19L21.59,4.58,3.06,20a1,1,0,0,1-.64.19.91.91,0,0,1-.56-.29l-1.66-2A.87.87,0,0,1,0,17.32a.78.78,0,0,1,.29-.58L19.56.7a3.32,3.32,0,0,1,4.07,0l6.54,5.46V.94A.83.83,0,0,1,31,.08h5.14A.83.83,0,0,1,37,.94V11.87l5.87,4.87a.78.78,0,0,1,.29.58A.87.87,0,0,1,43,17.95Zm-6,1.85V32.65a1.74,1.74,0,0,1-1.71,1.71H25V24.08H18.16V34.37H7.88a1.74,1.74,0,0,1-1.71-1.71V19.79a.36.36,0,0,1,0-.08.37.37,0,0,0,0-.08l15.4-12.7L37,19.63A.38.38,0,0,1,37,19.79Z"/></g></g></svg>