<svg xmlns="http://www.w3.org/2000/svg" viewBox="0 0 48 48"><defs><style>.cls-1{fill:#fff;}</style></defs><title>Asset 1</title><g id="Layer_2" data-name="Layer 2"><g id="Layer_1-2" data-name="Layer 1"><path class="cls-1" d="M44.78,12A23.48,23.48,0,0,1,48,24a23.47,23.47,0,0,1-3.22,12A23.89,23.89,0,0,1,36,44.78,23.48,23.48,0,0,1,24,48a23.48,23.48,0,0,1-12-3.22A23.89,23.89,0,0,1,3.22,36,23.47,23.47,0,0,1,0,24,23.48,23.48,0,0,1,3.22,12,23.89,23.89,0,0,1,12,3.22,23.48,23.48,0,0,1,24,0,23.48,23.48,0,0,1,36,3.22,23.89,23.89,0,0,1,44.78,12ZM38,26V22a2,2,0,0,0-2-2H28V12a2,2,0,0,0-2-2H22a2,2,0,0,0-2,2v8H12a2,2,0,0,0-2,2v4a2,2,0,0,0,2,2h8v8a2,2,0,0,0,2,2h4a2,2,0,0,0,2-2V28h8a2,2,0,0,0,2-2Z"/></g></g></svg>