<svg xmlns="http://www.w3.org/2000/svg" viewBox="0 0 48 41.14"><defs><style>.cls-1{fill:#016e90;}</style></defs><title>Asset 33</title><g id="Layer_2" data-name="Layer 2"><g id="Layer_1-2" data-name="Layer 1"><path class="cls-1" d="M48,11.14V21.43H0V11.14a4.13,4.13,0,0,1,1.26-3,4.13,4.13,0,0,1,3-1.26h9.43V2.57A2.48,2.48,0,0,1,14.46.75,2.48,2.48,0,0,1,16.29,0H31.71a2.48,2.48,0,0,1,1.82.75,2.48,2.48,0,0,1,.75,1.82V6.86h9.43A4.3,4.3,0,0,1,48,11.14ZM48,24V36.86a4.3,4.3,0,0,1-4.29,4.29H4.29a4.13,4.13,0,0,1-3-1.26,4.13,4.13,0,0,1-1.26-3V24H18v4.29A1.74,1.74,0,0,0,19.71,30h8.57A1.74,1.74,0,0,0,30,28.29V24ZM17.14,6.86H30.86V3.43H17.14ZM27.43,24v3.43H20.57V24Z"/></g></g></svg>