<svg xmlns="http://www.w3.org/2000/svg" viewBox="0 0 43.96 44.01"><defs><style>.cls-1{fill:#016e90;}</style></defs><title>Asset 34</title><g id="Layer_2" data-name="Layer 2"><g id="Layer_1-2" data-name="Layer 1"><path class="cls-1" d="M27,24.75,8.71,43a3.29,3.29,0,0,1-2.41,1,3.43,3.43,0,0,1-2.44-1L1,40.13a3.18,3.18,0,0,1-1-2.41,3.32,3.32,0,0,1,1-2.44L19.26,17A13.87,13.87,0,0,0,27,24.75ZM9.21,37.21A1.71,1.71,0,0,0,8,34.29a1.71,1.71,0,1,0,1.21,2.92ZM44,13.1a9.38,9.38,0,0,1-.62,2.84,11.78,11.78,0,0,1-4.41,5.83A11.69,11.69,0,0,1,32,24a11.56,11.56,0,0,1-8.48-3.52A11.56,11.56,0,0,1,20,12a11.56,11.56,0,0,1,3.52-8.48A11.56,11.56,0,0,1,32,0a13,13,0,0,1,3.25.44,9.18,9.18,0,0,1,2.88,1.25.87.87,0,0,1,0,1.5L30.29,7.71v6l5.17,2.87,2.12-1.3q2-1.22,3.63-2.17a8.73,8.73,0,0,1,1.89-1,.78.78,0,0,1,.63.27A1,1,0,0,1,44,13.1Z"/></g></g></svg>